<?xml version="1.0" encoding="UTF-8"?>
<!DOCTYPE svg PUBLIC "-//W3C//DTD SVG 1.1//EN" "http://www.w3.org/Graphics/SVG/1.1/DTD/svg11.dtd">
<svg xmlns="http://www.w3.org/2000/svg" version="1.1" width="80px" height="80px" style="shape-rendering:geometricPrecision; text-rendering:geometricPrecision; image-rendering:optimizeQuality; fill-rule:evenodd; clip-rule:evenodd" xmlns:xlink="http://www.w3.org/1999/xlink">
<g><path style="opacity:1" fill="#b83b3b" d="M 57.5,42.5 C 57.5,42.8333 57.5,43.1667 57.5,43.5C 57.5,51.5 57.5,59.5 57.5,67.5C 57.5,67.8333 57.5,68.1667 57.5,68.5C 43.8733,70.4824 29.8733,71.1491 15.5,70.5C 15.5,70.1667 15.5,69.8333 15.5,69.5C 15.5,67.1667 15.5,64.8333 15.5,62.5C 15.8333,62.5 16.1667,62.5 16.5,62.5C 16.5,64.8333 16.5,67.1667 16.5,69.5C 29.8333,69.5 43.1667,69.5 56.5,69.5C 56.5,60.1667 56.5,50.8333 56.5,41.5C 43.1667,41.5 29.8333,41.5 16.5,41.5C 16.5,43.8333 16.5,46.1667 16.5,48.5C 16.1667,48.5 15.8333,48.5 15.5,48.5C 15.5,46.1667 15.5,43.8333 15.5,41.5C 15.5,41.1667 15.5,40.8333 15.5,40.5C 16.8333,40.5 18.1667,40.5 19.5,40.5C 19.5,39.1667 19.5,37.8333 19.5,36.5C 18.1667,36.5 16.8333,36.5 15.5,36.5C 15.5,26.5 15.5,16.5 15.5,6.5C 29.5,6.5 43.5,6.5 57.5,6.5C 57.5,16.5 57.5,26.5 57.5,36.5C 56.1667,36.5 54.8333,36.5 53.5,36.5C 53.5,37.8333 53.5,39.1667 53.5,40.5C 55.4832,40.1568 56.8166,40.8235 57.5,42.5 Z"/></g>
<g><path style="opacity:1" fill="#f68f8e" d="M 16.5,7.5 C 29.8333,7.5 43.1667,7.5 56.5,7.5C 56.5,16.8333 56.5,26.1667 56.5,35.5C 43.1667,35.5 29.8333,35.5 16.5,35.5C 16.5,26.1667 16.5,16.8333 16.5,7.5 Z"/></g>
<g><path style="opacity:1" fill="#35404c" d="M 25.5,14.5 C 24.4324,15.4345 23.099,15.7678 21.5,15.5C 21.5,19.5 21.5,23.5 21.5,27.5C 23.099,27.2322 24.4324,27.5655 25.5,28.5C 23.8333,28.5 22.1667,28.5 20.5,28.5C 20.5,23.8333 20.5,19.1667 20.5,14.5C 22.1667,14.5 23.8333,14.5 25.5,14.5 Z"/></g>
<g><path style="opacity:1" fill="#738698" d="M 25.5,28.5 C 24.4324,27.5655 23.099,27.2322 21.5,27.5C 21.5,23.5 21.5,19.5 21.5,15.5C 23.099,15.7678 24.4324,15.4345 25.5,14.5C 25.5,13.5 25.5,12.5 25.5,11.5C 34.5,11.5 43.5,11.5 52.5,11.5C 52.5,18.1667 52.5,24.8333 52.5,31.5C 43.5,31.5 34.5,31.5 25.5,31.5C 25.5,30.5 25.5,29.5 25.5,28.5 Z"/></g>
<g><path style="opacity:1" fill="#c1e8fe" d="M 26.5,12.5 C 34.8333,12.5 43.1667,12.5 51.5,12.5C 51.5,18.5 51.5,24.5 51.5,30.5C 43.1667,30.5 34.8333,30.5 26.5,30.5C 26.5,24.5 26.5,18.5 26.5,12.5 Z"/></g>
<g><path style="opacity:0.706" fill="#7b93a1" d="M 15.5,40.5 C 15.5,40.8333 15.5,41.1667 15.5,41.5C 7.16576,42.1698 1.83243,46.5031 -0.5,54.5C -0.5,52.8333 -0.5,51.1667 -0.5,49.5C 2.86385,43.1613 8.19718,40.1613 15.5,40.5 Z"/></g>
<g><path style="opacity:1" fill="#dce7ed" d="M 15.5,41.5 C 15.5,43.8333 15.5,46.1667 15.5,48.5C 9.38066,49.1193 6.88066,52.4526 8,58.5C 9.71547,61.3974 12.2155,62.7307 15.5,62.5C 15.5,64.8333 15.5,67.1667 15.5,69.5C 7.16576,68.8302 1.83243,64.4969 -0.5,56.5C -0.5,55.8333 -0.5,55.1667 -0.5,54.5C 1.83243,46.5031 7.16576,42.1698 15.5,41.5 Z"/></g>
<g><path style="opacity:1" fill="#f68f8e" d="M 16.5,62.5 C 19.5,62.5 22.5,62.5 25.5,62.5C 25.5,63.5 25.5,64.5 25.5,65.5C 34.5,65.5 43.5,65.5 52.5,65.5C 52.5,58.8333 52.5,52.1667 52.5,45.5C 43.5,45.5 34.5,45.5 25.5,45.5C 25.5,46.5 25.5,47.5 25.5,48.5C 22.5,48.5 19.5,48.5 16.5,48.5C 16.5,46.1667 16.5,43.8333 16.5,41.5C 29.8333,41.5 43.1667,41.5 56.5,41.5C 56.5,50.8333 56.5,60.1667 56.5,69.5C 43.1667,69.5 29.8333,69.5 16.5,69.5C 16.5,67.1667 16.5,64.8333 16.5,62.5 Z"/></g>
<g><path style="opacity:1" fill="#d6e1e9" d="M 57.5,43.5 C 65.2261,41.9924 71.7261,43.9924 77,49.5C 79.7838,56.151 78.2838,61.651 72.5,66C 67.5988,67.3254 62.5988,67.8254 57.5,67.5C 57.5,59.5 57.5,51.5 57.5,43.5 Z"/></g>
<g><path style="opacity:1" fill="#778b9b" d="M 25.5,62.5 C 25.5,57.8333 25.5,53.1667 25.5,48.5C 25.5,47.5 25.5,46.5 25.5,45.5C 34.5,45.5 43.5,45.5 52.5,45.5C 52.5,52.1667 52.5,58.8333 52.5,65.5C 43.5,65.5 34.5,65.5 25.5,65.5C 25.5,64.5 25.5,63.5 25.5,62.5 Z"/></g>
<g><path style="opacity:1" fill="#c1e8fe" d="M 26.5,46.5 C 34.8333,46.5 43.1667,46.5 51.5,46.5C 51.5,52.5 51.5,58.5 51.5,64.5C 43.1667,64.5 34.8333,64.5 26.5,64.5C 26.5,58.5 26.5,52.5 26.5,46.5 Z"/></g>
<g><path style="opacity:1" fill="#5e6f83" d="M 15.5,48.5 C 15.8333,48.5 16.1667,48.5 16.5,48.5C 19.5,48.5 22.5,48.5 25.5,48.5C 25.5,53.1667 25.5,57.8333 25.5,62.5C 22.5,62.5 19.5,62.5 16.5,62.5C 16.1667,62.5 15.8333,62.5 15.5,62.5C 12.2155,62.7307 9.71547,61.3974 8,58.5C 6.88066,52.4526 9.38066,49.1193 15.5,48.5 Z"/></g>
<g><path style="opacity:0.869" fill="#7d90a0" d="M 57.5,43.5 C 57.5,43.1667 57.5,42.8333 57.5,42.5C 63.7624,41.872 69.7624,42.7054 75.5,45C 76.9771,46.8121 78.3104,48.6455 79.5,50.5C 79.5,53.8333 79.5,57.1667 79.5,60.5C 78.0168,64.1468 75.3501,66.6468 71.5,68C 66.8452,68.4992 62.1785,68.6658 57.5,68.5C 57.5,68.1667 57.5,67.8333 57.5,67.5C 62.5988,67.8254 67.5988,67.3254 72.5,66C 78.2838,61.651 79.7838,56.151 77,49.5C 71.7261,43.9924 65.2261,41.9924 57.5,43.5 Z"/></g>
<g><path style="opacity:1" fill="#badebe" d="M 64.5,50.5 C 69.6646,50.1619 71.8313,52.4953 71,57.5C 68,61.5 65,61.5 62,57.5C 61.162,54.5193 61.9953,52.1859 64.5,50.5 Z"/></g>
<g><path style="opacity:1" fill="#fefffe" d="M 13.5,52.5 C 18.0205,53.9753 18.3538,55.9753 14.5,58.5C 13.5,57.5 12.5,56.5 11.5,55.5C 12.6119,54.7348 13.2786,53.7348 13.5,52.5 Z"/></g>
<g><path style="opacity:0.614" fill="#7d95a2" d="M -0.5,56.5 C 1.83243,64.4969 7.16576,68.8302 15.5,69.5C 15.5,69.8333 15.5,70.1667 15.5,70.5C 8.19718,70.8387 2.86385,67.8387 -0.5,61.5C -0.5,59.8333 -0.5,58.1667 -0.5,56.5 Z"/></g>
</svg>
